<svg xmlns="http://www.w3.org/2000/svg" viewBox="0 0 512 512">
  <rect width="512" height="512" rx="100" fill="#06b6d4"/>
  <!-- Increased scale and centered the path for better visibility -->
  <g transform="translate(56, 56) scale(0.78)">
    <path fill="white" d="M496 128L256 32 16 128l240 96 240-96zm-288 128v128c0 53 107.5 96 240 96s240-43 240-96V256c0-38.4-56-71.8-142.2-86.8l-52.6 21c-4.9 2-10.4 2-15.3 0l-29.9-12c-86.2 15-142.2 48.4-142.2 86.8v128c-57.5-23.7-96-62.8-96-107.2 0-21.9 9.3-43.2 26.6-61l-28.4-11.4zM24 160v160c-13.3 0-24 10.7-24 24s10.7 24 24 24 24-10.7 24-24-10.7-24-24-24-24 10.7-24 24-24-10.7-24-24V160c0-13.3-10.7-24-24-24-13.3 0-24 10.7-24 24z"/>
    <path fill="white" d="M112 400c0 26.5 64.5 48 144 48s144-21.5 144-48c0-26.5-64.5-48-144-48s-144 21.5-144 48z" opacity="0"/>
  </g>
</svg>
